solid OpenSCAD_Model
  facet normal -1 0 0
    outer loop
      vertex -18 -29.5 -39
      vertex -18 29.5 39
      vertex -18 29.5 -39
    endloop
  endfacet
  facet normal -1 -0 0
    outer loop
      vertex -18 29.5 39
      vertex -18 -29.5 -39
      vertex -18 -29.5 39
    endloop
  endfacet
  facet normal 0 0 1
    outer loop
      vertex 18 29.5 39
      vertex 15 26.5 39
      vertex 18 -29.5 39
    endloop
  endfacet
  facet normal 0 0 1
    outer loop
      vertex 18 29.5 39
      vertex -15 26.5 39
      vertex 15 26.5 39
    endloop
  endfacet
  facet normal 0 0 1
    outer loop
      vertex -15 26.5 39
      vertex -18 29.5 39
      vertex -15 -26.5 39
    endloop
  endfacet
  facet normal -0 0 1
    outer loop
      vertex -18 29.5 39
      vertex -15 26.5 39
      vertex 18 29.5 39
    endloop
  endfacet
  facet normal -0 0 1
    outer loop
      vertex 15 -26.5 39
      vertex 18 -29.5 39
      vertex 15 26.5 39
    endloop
  endfacet
  facet normal -0 0 1
    outer loop
      vertex -15 -26.5 39
      vertex 18 -29.5 39
      vertex 15 -26.5 39
    endloop
  endfacet
  facet normal 0 0 1
    outer loop
      vertex -15 -26.5 39
      vertex -18 -29.5 39
      vertex 18 -29.5 39
    endloop
  endfacet
  facet normal 0 0 1
    outer loop
      vertex -18 -29.5 39
      vertex -15 -26.5 39
      vertex -18 29.5 39
    endloop
  endfacet
  facet normal 1 -0 0
    outer loop
      vertex 18 -9.25 5.75
      vertex 18 9.25 -5.75
      vertex 18 9.25 5.75
    endloop
  endfacet
  facet normal 1 0 0
    outer loop
      vertex 18 9.25 -5.75
      vertex 18 -9.25 5.75
      vertex 18 -9.25 -5.75
    endloop
  endfacet
  facet normal 1 0 0
    outer loop
      vertex 18 9.25 5.75
      vertex 18 29.5 39
      vertex 18 9.25 24.25
    endloop
  endfacet
  facet normal 1 0 0
    outer loop
      vertex 18 29.5 39
      vertex 18 -9.25 24.25
      vertex 18 9.25 24.25
    endloop
  endfacet
  facet normal 1 0 0
    outer loop
      vertex 18 -29.5 39
      vertex 18 -9.25 5.75
      vertex 18 -9.25 24.25
    endloop
  endfacet
  facet normal 1 0 0
    outer loop
      vertex 18 -9.25 5.75
      vertex 18 -29.5 39
      vertex 18 -9.25 -5.75
    endloop
  endfacet
  facet normal 1 0 0
    outer loop
      vertex 18 -29.5 -39
      vertex 18 -9.25 -5.75
      vertex 18 -29.5 39
    endloop
  endfacet
  facet normal 1 -0 0
    outer loop
      vertex 18 -29.5 39
      vertex 18 -9.25 24.25
      vertex 18 29.5 39
    endloop
  endfacet
  facet normal 1 0 0
    outer loop
      vertex 18 29.5 39
      vertex 18 9.25 5.75
      vertex 18 29.5 -39
    endloop
  endfacet
  facet normal 1 -0 0
    outer loop
      vertex 18 9.25 -5.75
      vertex 18 29.5 -39
      vertex 18 9.25 5.75
    endloop
  endfacet
  facet normal 1 -0 0
    outer loop
      vertex 18 9.25 -24.25
      vertex 18 29.5 -39
      vertex 18 9.25 -5.75
    endloop
  endfacet
  facet normal 1 -0 0
    outer loop
      vertex 18 -9.25 -24.25
      vertex 18 29.5 -39
      vertex 18 9.25 -24.25
    endloop
  endfacet
  facet normal 1 0 0
    outer loop
      vertex 18 -9.25 -24.25
      vertex 18 -29.5 -39
      vertex 18 29.5 -39
    endloop
  endfacet
  facet normal 1 0 0
    outer loop
      vertex 18 -9.25 -5.75
      vertex 18 -29.5 -39
      vertex 18 -9.25 -24.25
    endloop
  endfacet
  facet normal 0 1 -0
    outer loop
      vertex 18 29.5 -39
      vertex -18 29.5 39
      vertex 18 29.5 39
    endloop
  endfacet
  facet normal 0 1 0
    outer loop
      vertex -18 29.5 39
      vertex 18 29.5 -39
      vertex -18 29.5 -39
    endloop
  endfacet
  facet normal 0 0 -1
    outer loop
      vertex -18 -29.5 -39
      vertex 18 29.5 -39
      vertex 18 -29.5 -39
    endloop
  endfacet
  facet normal -0 0 -1
    outer loop
      vertex 18 29.5 -39
      vertex -18 -29.5 -39
      vertex -18 29.5 -39
    endloop
  endfacet
  facet normal 0 -1 0
    outer loop
      vertex -18 -29.5 -39
      vertex 18 -29.5 39
      vertex -18 -29.5 39
    endloop
  endfacet
  facet normal 0 -1 -0
    outer loop
      vertex 18 -29.5 39
      vertex -18 -29.5 -39
      vertex 18 -29.5 -39
    endloop
  endfacet
  facet normal 1 -0 0
    outer loop
      vertex -15 -26.5 39
      vertex -15 26.5 -36
      vertex -15 26.5 39
    endloop
  endfacet
  facet normal 1 0 0
    outer loop
      vertex -15 26.5 -36
      vertex -15 -26.5 39
      vertex -15 -26.5 -36
    endloop
  endfacet
  facet normal -1 0 0
    outer loop
      vertex 15 -26.5 -36
      vertex 15 26.5 39
      vertex 15 26.5 -36
    endloop
  endfacet
  facet normal -1 -0 0
    outer loop
      vertex 15 26.5 39
      vertex 15 -26.5 -36
      vertex 15 -26.5 39
    endloop
  endfacet
  facet normal -0 0 1
    outer loop
      vertex -15 26.5 -36
      vertex 15 -26.5 -36
      vertex 15 26.5 -36
    endloop
  endfacet
  facet normal 0 0 1
    outer loop
      vertex 15 -26.5 -36
      vertex -15 26.5 -36
      vertex -15 -26.5 -36
    endloop
  endfacet
  facet normal 0 1 -0
    outer loop
      vertex 15 -26.5 -36
      vertex -15 -26.5 39
      vertex 15 -26.5 39
    endloop
  endfacet
  facet normal 0 1 0
    outer loop
      vertex -15 -26.5 39
      vertex 15 -26.5 -36
      vertex -15 -26.5 -36
    endloop
  endfacet
  facet normal 0 -1 0
    outer loop
      vertex -15 26.5 -36
      vertex 15 26.5 39
      vertex -15 26.5 39
    endloop
  endfacet
  facet normal 0 -1 -0
    outer loop
      vertex 15 26.5 39
      vertex -15 26.5 -36
      vertex 15 26.5 -36
    endloop
  endfacet
  facet normal 0 -1 0
    outer loop
      vertex 18 -9.25 5.75
      vertex 36 -9.25 24.25
      vertex 18 -9.25 24.25
    endloop
  endfacet
  facet normal 0 -1 -0
    outer loop
      vertex 36 -9.25 24.25
      vertex 18 -9.25 5.75
      vertex 36 -9.25 5.75
    endloop
  endfacet
  facet normal 1 -0 0
    outer loop
      vertex 36 -9.25 24.25
      vertex 36 9.25 5.75
      vertex 36 9.25 24.25
    endloop
  endfacet
  facet normal 1 0 0
    outer loop
      vertex 36 9.25 5.75
      vertex 36 -9.25 24.25
      vertex 36 -9.25 5.75
    endloop
  endfacet
  facet normal 0 0 1
    outer loop
      vertex 36 9.25 24.25
      vertex 33.5 6.75 24.25
      vertex 36 -9.25 24.25
    endloop
  endfacet
  facet normal -0 0 1
    outer loop
      vertex 18 9.25 24.25
      vertex 33.5 6.75 24.25
      vertex 36 9.25 24.25
    endloop
  endfacet
  facet normal 0 0 1
    outer loop
      vertex 20 6.75 24.25
      vertex 18 9.25 24.25
      vertex 20 -6.75 24.25
    endloop
  endfacet
  facet normal 0 0 1
    outer loop
      vertex 33.5 6.75 24.25
      vertex 18 9.25 24.25
      vertex 20 6.75 24.25
    endloop
  endfacet
  facet normal -0 0 1
    outer loop
      vertex 33.5 -6.75 24.25
      vertex 36 -9.25 24.25
      vertex 33.5 6.75 24.25
    endloop
  endfacet
  facet normal 0 0 1
    outer loop
      vertex 18 -9.25 24.25
      vertex 33.5 -6.75 24.25
      vertex 20 -6.75 24.25
    endloop
  endfacet
  facet normal 0 0 1
    outer loop
      vertex 33.5 -6.75 24.25
      vertex 18 -9.25 24.25
      vertex 36 -9.25 24.25
    endloop
  endfacet
  facet normal 0 0 1
    outer loop
      vertex 18 -9.25 24.25
      vertex 20 -6.75 24.25
      vertex 18 9.25 24.25
    endloop
  endfacet
  facet normal 0 1 -0
    outer loop
      vertex 36 9.25 5.75
      vertex 18 9.25 24.25
      vertex 36 9.25 24.25
    endloop
  endfacet
  facet normal 0 1 0
    outer loop
      vertex 18 9.25 24.25
      vertex 36 9.25 5.75
      vertex 18 9.25 5.75
    endloop
  endfacet
  facet normal 0 0 -1
    outer loop
      vertex 36 -9.25 5.75
      vertex 33.5 -6.75 5.75
      vertex 36 9.25 5.75
    endloop
  endfacet
  facet normal 0 0 -1
    outer loop
      vertex 18 -9.25 5.75
      vertex 33.5 -6.75 5.75
      vertex 36 -9.25 5.75
    endloop
  endfacet
  facet normal -0 0 -1
    outer loop
      vertex 20 -6.75 5.75
      vertex 18 -9.25 5.75
      vertex 20 6.75 5.75
    endloop
  endfacet
  facet normal -0 0 -1
    outer loop
      vertex 33.5 -6.75 5.75
      vertex 18 -9.25 5.75
      vertex 20 -6.75 5.75
    endloop
  endfacet
  facet normal 0 0 -1
    outer loop
      vertex 33.5 6.75 5.75
      vertex 36 9.25 5.75
      vertex 33.5 -6.75 5.75
    endloop
  endfacet
  facet normal 0 0 -1
    outer loop
      vertex 18 9.25 5.75
      vertex 33.5 6.75 5.75
      vertex 20 6.75 5.75
    endloop
  endfacet
  facet normal 0 0 -1
    outer loop
      vertex 33.5 6.75 5.75
      vertex 18 9.25 5.75
      vertex 36 9.25 5.75
    endloop
  endfacet
  facet normal 0 0 -1
    outer loop
      vertex 18 9.25 5.75
      vertex 20 6.75 5.75
      vertex 18 -9.25 5.75
    endloop
  endfacet
  facet normal 1 -0 0
    outer loop
      vertex 20 -6.75 24.25
      vertex 20 6.75 5.75
      vertex 20 6.75 24.25
    endloop
  endfacet
  facet normal 1 0 0
    outer loop
      vertex 20 6.75 5.75
      vertex 20 -6.75 24.25
      vertex 20 -6.75 5.75
    endloop
  endfacet
  facet normal 0 1 -0
    outer loop
      vertex 33.5 -6.75 5.75
      vertex 20 -6.75 24.25
      vertex 33.5 -6.75 24.25
    endloop
  endfacet
  facet normal 0 1 0
    outer loop
      vertex 20 -6.75 24.25
      vertex 33.5 -6.75 5.75
      vertex 20 -6.75 5.75
    endloop
  endfacet
  facet normal -1 0 0
    outer loop
      vertex 33.5 -6.75 5.75
      vertex 33.5 6.75 24.25
      vertex 33.5 6.75 5.75
    endloop
  endfacet
  facet normal -1 -0 0
    outer loop
      vertex 33.5 6.75 24.25
      vertex 33.5 -6.75 5.75
      vertex 33.5 -6.75 24.25
    endloop
  endfacet
  facet normal 0 -1 0
    outer loop
      vertex 20 6.75 5.75
      vertex 33.5 6.75 24.25
      vertex 20 6.75 24.25
    endloop
  endfacet
  facet normal 0 -1 -0
    outer loop
      vertex 33.5 6.75 24.25
      vertex 20 6.75 5.75
      vertex 33.5 6.75 5.75
    endloop
  endfacet
  facet normal 0 -1 0
    outer loop
      vertex 18 -9.25 -24.25
      vertex 36 -9.25 -5.75
      vertex 18 -9.25 -5.75
    endloop
  endfacet
  facet normal 0 -1 -0
    outer loop
      vertex 36 -9.25 -5.75
      vertex 18 -9.25 -24.25
      vertex 36 -9.25 -24.25
    endloop
  endfacet
  facet normal 1 -0 0
    outer loop
      vertex 36 -9.25 -5.75
      vertex 36 9.25 -24.25
      vertex 36 9.25 -5.75
    endloop
  endfacet
  facet normal 1 0 0
    outer loop
      vertex 36 9.25 -24.25
      vertex 36 -9.25 -5.75
      vertex 36 -9.25 -24.25
    endloop
  endfacet
  facet normal 0 0 1
    outer loop
      vertex 36 9.25 -5.75
      vertex 33.5 6.75 -5.75
      vertex 36 -9.25 -5.75
    endloop
  endfacet
  facet normal -0 0 1
    outer loop
      vertex 18 9.25 -5.75
      vertex 33.5 6.75 -5.75
      vertex 36 9.25 -5.75
    endloop
  endfacet
  facet normal 0 0 1
    outer loop
      vertex 20 6.75 -5.75
      vertex 18 9.25 -5.75
      vertex 20 -6.75 -5.75
    endloop
  endfacet
  facet normal 0 0 1
    outer loop
      vertex 33.5 6.75 -5.75
      vertex 18 9.25 -5.75
      vertex 20 6.75 -5.75
    endloop
  endfacet
  facet normal -0 0 1
    outer loop
      vertex 33.5 -6.75 -5.75
      vertex 36 -9.25 -5.75
      vertex 33.5 6.75 -5.75
    endloop
  endfacet
  facet normal 0 0 1
    outer loop
      vertex 18 -9.25 -5.75
      vertex 33.5 -6.75 -5.75
      vertex 20 -6.75 -5.75
    endloop
  endfacet
  facet normal 0 0 1
    outer loop
      vertex 33.5 -6.75 -5.75
      vertex 18 -9.25 -5.75
      vertex 36 -9.25 -5.75
    endloop
  endfacet
  facet normal 0 0 1
    outer loop
      vertex 18 -9.25 -5.75
      vertex 20 -6.75 -5.75
      vertex 18 9.25 -5.75
    endloop
  endfacet
  facet normal 0 1 -0
    outer loop
      vertex 36 9.25 -24.25
      vertex 18 9.25 -5.75
      vertex 36 9.25 -5.75
    endloop
  endfacet
  facet normal 0 1 0
    outer loop
      vertex 18 9.25 -5.75
      vertex 36 9.25 -24.25
      vertex 18 9.25 -24.25
    endloop
  endfacet
  facet normal 0 0 -1
    outer loop
      vertex 36 -9.25 -24.25
      vertex 33.5 -6.75 -24.25
      vertex 36 9.25 -24.25
    endloop
  endfacet
  facet normal 0 0 -1
    outer loop
      vertex 18 -9.25 -24.25
      vertex 33.5 -6.75 -24.25
      vertex 36 -9.25 -24.25
    endloop
  endfacet
  facet normal -0 0 -1
    outer loop
      vertex 20 -6.75 -24.25
      vertex 18 -9.25 -24.25
      vertex 20 6.75 -24.25
    endloop
  endfacet
  facet normal -0 0 -1
    outer loop
      vertex 33.5 -6.75 -24.25
      vertex 18 -9.25 -24.25
      vertex 20 -6.75 -24.25
    endloop
  endfacet
  facet normal 0 0 -1
    outer loop
      vertex 33.5 6.75 -24.25
      vertex 36 9.25 -24.25
      vertex 33.5 -6.75 -24.25
    endloop
  endfacet
  facet normal 0 0 -1
    outer loop
      vertex 18 9.25 -24.25
      vertex 33.5 6.75 -24.25
      vertex 20 6.75 -24.25
    endloop
  endfacet
  facet normal 0 0 -1
    outer loop
      vertex 33.5 6.75 -24.25
      vertex 18 9.25 -24.25
      vertex 36 9.25 -24.25
    endloop
  endfacet
  facet normal 0 0 -1
    outer loop
      vertex 18 9.25 -24.25
      vertex 20 6.75 -24.25
      vertex 18 -9.25 -24.25
    endloop
  endfacet
  facet normal 1 -0 0
    outer loop
      vertex 20 -6.75 -5.75
      vertex 20 6.75 -24.25
      vertex 20 6.75 -5.75
    endloop
  endfacet
  facet normal 1 0 0
    outer loop
      vertex 20 6.75 -24.25
      vertex 20 -6.75 -5.75
      vertex 20 -6.75 -24.25
    endloop
  endfacet
  facet normal 0 1 -0
    outer loop
      vertex 33.5 -6.75 -24.25
      vertex 20 -6.75 -5.75
      vertex 33.5 -6.75 -5.75
    endloop
  endfacet
  facet normal 0 1 0
    outer loop
      vertex 20 -6.75 -5.75
      vertex 33.5 -6.75 -24.25
      vertex 20 -6.75 -24.25
    endloop
  endfacet
  facet normal -1 0 0
    outer loop
      vertex 33.5 -6.75 -24.25
      vertex 33.5 6.75 -5.75
      vertex 33.5 6.75 -24.25
    endloop
  endfacet
  facet normal -1 -0 0
    outer loop
      vertex 33.5 6.75 -5.75
      vertex 33.5 -6.75 -24.25
      vertex 33.5 -6.75 -5.75
    endloop
  endfacet
  facet normal 0 -1 0
    outer loop
      vertex 20 6.75 -24.25
      vertex 33.5 6.75 -5.75
      vertex 20 6.75 -5.75
    endloop
  endfacet
  facet normal 0 -1 -0
    outer loop
      vertex 33.5 6.75 -5.75
      vertex 20 6.75 -24.25
      vertex 33.5 6.75 -24.25
    endloop
  endfacet
endsolid OpenSCAD_Model
