solid OpenSCAD_Model
  facet normal -1 0 0
    outer loop
      vertex -17 -29 -39
      vertex -17 29 39
      vertex -17 29 -39
    endloop
  endfacet
  facet normal -1 -0 0
    outer loop
      vertex -17 29 39
      vertex -17 -29 -39
      vertex -17 -29 39
    endloop
  endfacet
  facet normal 0 0 1
    outer loop
      vertex 17 29 39
      vertex 14 26 39
      vertex 17 -29 39
    endloop
  endfacet
  facet normal 0 0 1
    outer loop
      vertex 17 29 39
      vertex -14 26 39
      vertex 14 26 39
    endloop
  endfacet
  facet normal 0 0 1
    outer loop
      vertex -14 26 39
      vertex -17 29 39
      vertex -14 -26 39
    endloop
  endfacet
  facet normal -0 0 1
    outer loop
      vertex -17 29 39
      vertex -14 26 39
      vertex 17 29 39
    endloop
  endfacet
  facet normal -0 0 1
    outer loop
      vertex 14 -26 39
      vertex 17 -29 39
      vertex 14 26 39
    endloop
  endfacet
  facet normal -0 0 1
    outer loop
      vertex -14 -26 39
      vertex 17 -29 39
      vertex 14 -26 39
    endloop
  endfacet
  facet normal 0 0 1
    outer loop
      vertex -14 -26 39
      vertex -17 -29 39
      vertex 17 -29 39
    endloop
  endfacet
  facet normal 0 0 1
    outer loop
      vertex -17 -29 39
      vertex -14 -26 39
      vertex -17 29 39
    endloop
  endfacet
  facet normal 1 -0 0
    outer loop
      vertex 17 -9.25 5.75
      vertex 17 9.25 -5.75
      vertex 17 9.25 5.75
    endloop
  endfacet
  facet normal 1 0 0
    outer loop
      vertex 17 9.25 -5.75
      vertex 17 -9.25 5.75
      vertex 17 -9.25 -5.75
    endloop
  endfacet
  facet normal 1 0 0
    outer loop
      vertex 17 9.25 5.75
      vertex 17 29 39
      vertex 17 9.25 24.25
    endloop
  endfacet
  facet normal 1 0 0
    outer loop
      vertex 17 29 39
      vertex 17 -9.25 24.25
      vertex 17 9.25 24.25
    endloop
  endfacet
  facet normal 1 0 0
    outer loop
      vertex 17 -29 39
      vertex 17 -9.25 5.75
      vertex 17 -9.25 24.25
    endloop
  endfacet
  facet normal 1 0 0
    outer loop
      vertex 17 -9.25 5.75
      vertex 17 -29 39
      vertex 17 -9.25 -5.75
    endloop
  endfacet
  facet normal 1 0 0
    outer loop
      vertex 17 -29 -39
      vertex 17 -9.25 -5.75
      vertex 17 -29 39
    endloop
  endfacet
  facet normal 1 -0 0
    outer loop
      vertex 17 -29 39
      vertex 17 -9.25 24.25
      vertex 17 29 39
    endloop
  endfacet
  facet normal 1 0 0
    outer loop
      vertex 17 29 39
      vertex 17 9.25 5.75
      vertex 17 29 -39
    endloop
  endfacet
  facet normal 1 -0 0
    outer loop
      vertex 17 9.25 -5.75
      vertex 17 29 -39
      vertex 17 9.25 5.75
    endloop
  endfacet
  facet normal 1 -0 0
    outer loop
      vertex 17 9.25 -24.25
      vertex 17 29 -39
      vertex 17 9.25 -5.75
    endloop
  endfacet
  facet normal 1 -0 0
    outer loop
      vertex 17 -9.25 -24.25
      vertex 17 29 -39
      vertex 17 9.25 -24.25
    endloop
  endfacet
  facet normal 1 0 0
    outer loop
      vertex 17 -9.25 -24.25
      vertex 17 -29 -39
      vertex 17 29 -39
    endloop
  endfacet
  facet normal 1 0 0
    outer loop
      vertex 17 -9.25 -5.75
      vertex 17 -29 -39
      vertex 17 -9.25 -24.25
    endloop
  endfacet
  facet normal 0 1 -0
    outer loop
      vertex 17 29 -39
      vertex -17 29 39
      vertex 17 29 39
    endloop
  endfacet
  facet normal 0 1 0
    outer loop
      vertex -17 29 39
      vertex 17 29 -39
      vertex -17 29 -39
    endloop
  endfacet
  facet normal 0 0 -1
    outer loop
      vertex -17 -29 -39
      vertex 17 29 -39
      vertex 17 -29 -39
    endloop
  endfacet
  facet normal -0 0 -1
    outer loop
      vertex 17 29 -39
      vertex -17 -29 -39
      vertex -17 29 -39
    endloop
  endfacet
  facet normal 0 -1 0
    outer loop
      vertex -17 -29 -39
      vertex 17 -29 39
      vertex -17 -29 39
    endloop
  endfacet
  facet normal 0 -1 -0
    outer loop
      vertex 17 -29 39
      vertex -17 -29 -39
      vertex 17 -29 -39
    endloop
  endfacet
  facet normal 1 -0 0
    outer loop
      vertex -14 -26 39
      vertex -14 26 -36
      vertex -14 26 39
    endloop
  endfacet
  facet normal 1 0 0
    outer loop
      vertex -14 26 -36
      vertex -14 -26 39
      vertex -14 -26 -36
    endloop
  endfacet
  facet normal -1 0 0
    outer loop
      vertex 14 -26 -36
      vertex 14 26 39
      vertex 14 26 -36
    endloop
  endfacet
  facet normal -1 -0 0
    outer loop
      vertex 14 26 39
      vertex 14 -26 -36
      vertex 14 -26 39
    endloop
  endfacet
  facet normal 0 -1 0
    outer loop
      vertex -14 26 -36
      vertex 14 26 39
      vertex -14 26 39
    endloop
  endfacet
  facet normal 0 -1 -0
    outer loop
      vertex 14 26 39
      vertex -14 26 -36
      vertex 14 26 -36
    endloop
  endfacet
  facet normal -0 0 1
    outer loop
      vertex -14 26 -36
      vertex 14 -26 -36
      vertex 14 26 -36
    endloop
  endfacet
  facet normal 0 0 1
    outer loop
      vertex 14 -26 -36
      vertex -14 26 -36
      vertex -14 -26 -36
    endloop
  endfacet
  facet normal 0 1 -0
    outer loop
      vertex 14 -26 -36
      vertex -14 -26 39
      vertex 14 -26 39
    endloop
  endfacet
  facet normal 0 1 0
    outer loop
      vertex -14 -26 39
      vertex 14 -26 -36
      vertex -14 -26 -36
    endloop
  endfacet
  facet normal 0 -1 0
    outer loop
      vertex 17 -9.25 5.75
      vertex 35 -9.25 24.25
      vertex 17 -9.25 24.25
    endloop
  endfacet
  facet normal 0 -1 -0
    outer loop
      vertex 35 -9.25 24.25
      vertex 17 -9.25 5.75
      vertex 35 -9.25 5.75
    endloop
  endfacet
  facet normal 1 -0 0
    outer loop
      vertex 35 -9.25 24.25
      vertex 35 9.25 5.75
      vertex 35 9.25 24.25
    endloop
  endfacet
  facet normal 1 0 0
    outer loop
      vertex 35 9.25 5.75
      vertex 35 -9.25 24.25
      vertex 35 -9.25 5.75
    endloop
  endfacet
  facet normal 0 0 1
    outer loop
      vertex 35 9.25 24.25
      vertex 32.5 6.75 24.25
      vertex 35 -9.25 24.25
    endloop
  endfacet
  facet normal -0 0 1
    outer loop
      vertex 17 9.25 24.25
      vertex 32.5 6.75 24.25
      vertex 35 9.25 24.25
    endloop
  endfacet
  facet normal 0 0 1
    outer loop
      vertex 19 6.75 24.25
      vertex 17 9.25 24.25
      vertex 19 -6.75 24.25
    endloop
  endfacet
  facet normal 0 0 1
    outer loop
      vertex 32.5 6.75 24.25
      vertex 17 9.25 24.25
      vertex 19 6.75 24.25
    endloop
  endfacet
  facet normal -0 0 1
    outer loop
      vertex 32.5 -6.75 24.25
      vertex 35 -9.25 24.25
      vertex 32.5 6.75 24.25
    endloop
  endfacet
  facet normal 0 0 1
    outer loop
      vertex 17 -9.25 24.25
      vertex 32.5 -6.75 24.25
      vertex 19 -6.75 24.25
    endloop
  endfacet
  facet normal 0 0 1
    outer loop
      vertex 32.5 -6.75 24.25
      vertex 17 -9.25 24.25
      vertex 35 -9.25 24.25
    endloop
  endfacet
  facet normal 0 0 1
    outer loop
      vertex 17 -9.25 24.25
      vertex 19 -6.75 24.25
      vertex 17 9.25 24.25
    endloop
  endfacet
  facet normal 0 1 -0
    outer loop
      vertex 35 9.25 5.75
      vertex 17 9.25 24.25
      vertex 35 9.25 24.25
    endloop
  endfacet
  facet normal 0 1 0
    outer loop
      vertex 17 9.25 24.25
      vertex 35 9.25 5.75
      vertex 17 9.25 5.75
    endloop
  endfacet
  facet normal 0 0 -1
    outer loop
      vertex 35 -9.25 5.75
      vertex 32.5 -6.75 5.75
      vertex 35 9.25 5.75
    endloop
  endfacet
  facet normal 0 0 -1
    outer loop
      vertex 17 -9.25 5.75
      vertex 32.5 -6.75 5.75
      vertex 35 -9.25 5.75
    endloop
  endfacet
  facet normal -0 0 -1
    outer loop
      vertex 19 -6.75 5.75
      vertex 17 -9.25 5.75
      vertex 19 6.75 5.75
    endloop
  endfacet
  facet normal -0 0 -1
    outer loop
      vertex 32.5 -6.75 5.75
      vertex 17 -9.25 5.75
      vertex 19 -6.75 5.75
    endloop
  endfacet
  facet normal 0 0 -1
    outer loop
      vertex 32.5 6.75 5.75
      vertex 35 9.25 5.75
      vertex 32.5 -6.75 5.75
    endloop
  endfacet
  facet normal 0 0 -1
    outer loop
      vertex 17 9.25 5.75
      vertex 32.5 6.75 5.75
      vertex 19 6.75 5.75
    endloop
  endfacet
  facet normal 0 0 -1
    outer loop
      vertex 32.5 6.75 5.75
      vertex 17 9.25 5.75
      vertex 35 9.25 5.75
    endloop
  endfacet
  facet normal 0 0 -1
    outer loop
      vertex 17 9.25 5.75
      vertex 19 6.75 5.75
      vertex 17 -9.25 5.75
    endloop
  endfacet
  facet normal 1 -0 0
    outer loop
      vertex 19 -6.75 24.25
      vertex 19 6.75 5.75
      vertex 19 6.75 24.25
    endloop
  endfacet
  facet normal 1 0 0
    outer loop
      vertex 19 6.75 5.75
      vertex 19 -6.75 24.25
      vertex 19 -6.75 5.75
    endloop
  endfacet
  facet normal 0 1 -0
    outer loop
      vertex 32.5 -6.75 5.75
      vertex 19 -6.75 24.25
      vertex 32.5 -6.75 24.25
    endloop
  endfacet
  facet normal 0 1 0
    outer loop
      vertex 19 -6.75 24.25
      vertex 32.5 -6.75 5.75
      vertex 19 -6.75 5.75
    endloop
  endfacet
  facet normal -1 0 0
    outer loop
      vertex 32.5 -6.75 5.75
      vertex 32.5 6.75 24.25
      vertex 32.5 6.75 5.75
    endloop
  endfacet
  facet normal -1 -0 0
    outer loop
      vertex 32.5 6.75 24.25
      vertex 32.5 -6.75 5.75
      vertex 32.5 -6.75 24.25
    endloop
  endfacet
  facet normal 0 -1 0
    outer loop
      vertex 19 6.75 5.75
      vertex 32.5 6.75 24.25
      vertex 19 6.75 24.25
    endloop
  endfacet
  facet normal 0 -1 -0
    outer loop
      vertex 32.5 6.75 24.25
      vertex 19 6.75 5.75
      vertex 32.5 6.75 5.75
    endloop
  endfacet
  facet normal 0 -1 0
    outer loop
      vertex 17 -9.25 -24.25
      vertex 35 -9.25 -5.75
      vertex 17 -9.25 -5.75
    endloop
  endfacet
  facet normal 0 -1 -0
    outer loop
      vertex 35 -9.25 -5.75
      vertex 17 -9.25 -24.25
      vertex 35 -9.25 -24.25
    endloop
  endfacet
  facet normal 1 -0 0
    outer loop
      vertex 35 -9.25 -5.75
      vertex 35 9.25 -24.25
      vertex 35 9.25 -5.75
    endloop
  endfacet
  facet normal 1 0 0
    outer loop
      vertex 35 9.25 -24.25
      vertex 35 -9.25 -5.75
      vertex 35 -9.25 -24.25
    endloop
  endfacet
  facet normal 0 0 1
    outer loop
      vertex 35 9.25 -5.75
      vertex 32.5 6.75 -5.75
      vertex 35 -9.25 -5.75
    endloop
  endfacet
  facet normal -0 0 1
    outer loop
      vertex 17 9.25 -5.75
      vertex 32.5 6.75 -5.75
      vertex 35 9.25 -5.75
    endloop
  endfacet
  facet normal 0 0 1
    outer loop
      vertex 19 6.75 -5.75
      vertex 17 9.25 -5.75
      vertex 19 -6.75 -5.75
    endloop
  endfacet
  facet normal 0 0 1
    outer loop
      vertex 32.5 6.75 -5.75
      vertex 17 9.25 -5.75
      vertex 19 6.75 -5.75
    endloop
  endfacet
  facet normal -0 0 1
    outer loop
      vertex 32.5 -6.75 -5.75
      vertex 35 -9.25 -5.75
      vertex 32.5 6.75 -5.75
    endloop
  endfacet
  facet normal 0 0 1
    outer loop
      vertex 17 -9.25 -5.75
      vertex 32.5 -6.75 -5.75
      vertex 19 -6.75 -5.75
    endloop
  endfacet
  facet normal 0 0 1
    outer loop
      vertex 32.5 -6.75 -5.75
      vertex 17 -9.25 -5.75
      vertex 35 -9.25 -5.75
    endloop
  endfacet
  facet normal 0 0 1
    outer loop
      vertex 17 -9.25 -5.75
      vertex 19 -6.75 -5.75
      vertex 17 9.25 -5.75
    endloop
  endfacet
  facet normal 0 1 -0
    outer loop
      vertex 35 9.25 -24.25
      vertex 17 9.25 -5.75
      vertex 35 9.25 -5.75
    endloop
  endfacet
  facet normal 0 1 0
    outer loop
      vertex 17 9.25 -5.75
      vertex 35 9.25 -24.25
      vertex 17 9.25 -24.25
    endloop
  endfacet
  facet normal 0 0 -1
    outer loop
      vertex 35 -9.25 -24.25
      vertex 32.5 -6.75 -24.25
      vertex 35 9.25 -24.25
    endloop
  endfacet
  facet normal 0 0 -1
    outer loop
      vertex 17 -9.25 -24.25
      vertex 32.5 -6.75 -24.25
      vertex 35 -9.25 -24.25
    endloop
  endfacet
  facet normal -0 0 -1
    outer loop
      vertex 19 -6.75 -24.25
      vertex 17 -9.25 -24.25
      vertex 19 6.75 -24.25
    endloop
  endfacet
  facet normal -0 0 -1
    outer loop
      vertex 32.5 -6.75 -24.25
      vertex 17 -9.25 -24.25
      vertex 19 -6.75 -24.25
    endloop
  endfacet
  facet normal 0 0 -1
    outer loop
      vertex 32.5 6.75 -24.25
      vertex 35 9.25 -24.25
      vertex 32.5 -6.75 -24.25
    endloop
  endfacet
  facet normal 0 0 -1
    outer loop
      vertex 17 9.25 -24.25
      vertex 32.5 6.75 -24.25
      vertex 19 6.75 -24.25
    endloop
  endfacet
  facet normal 0 0 -1
    outer loop
      vertex 32.5 6.75 -24.25
      vertex 17 9.25 -24.25
      vertex 35 9.25 -24.25
    endloop
  endfacet
  facet normal 0 0 -1
    outer loop
      vertex 17 9.25 -24.25
      vertex 19 6.75 -24.25
      vertex 17 -9.25 -24.25
    endloop
  endfacet
  facet normal 1 -0 0
    outer loop
      vertex 19 -6.75 -5.75
      vertex 19 6.75 -24.25
      vertex 19 6.75 -5.75
    endloop
  endfacet
  facet normal 1 0 0
    outer loop
      vertex 19 6.75 -24.25
      vertex 19 -6.75 -5.75
      vertex 19 -6.75 -24.25
    endloop
  endfacet
  facet normal 0 1 -0
    outer loop
      vertex 32.5 -6.75 -24.25
      vertex 19 -6.75 -5.75
      vertex 32.5 -6.75 -5.75
    endloop
  endfacet
  facet normal 0 1 0
    outer loop
      vertex 19 -6.75 -5.75
      vertex 32.5 -6.75 -24.25
      vertex 19 -6.75 -24.25
    endloop
  endfacet
  facet normal -1 0 0
    outer loop
      vertex 32.5 -6.75 -24.25
      vertex 32.5 6.75 -5.75
      vertex 32.5 6.75 -24.25
    endloop
  endfacet
  facet normal -1 -0 0
    outer loop
      vertex 32.5 6.75 -5.75
      vertex 32.5 -6.75 -24.25
      vertex 32.5 -6.75 -5.75
    endloop
  endfacet
  facet normal 0 -1 0
    outer loop
      vertex 19 6.75 -24.25
      vertex 32.5 6.75 -5.75
      vertex 19 6.75 -5.75
    endloop
  endfacet
  facet normal 0 -1 -0
    outer loop
      vertex 32.5 6.75 -5.75
      vertex 19 6.75 -24.25
      vertex 32.5 6.75 -24.25
    endloop
  endfacet
endsolid OpenSCAD_Model
